<svg xmlns="http://www.w3.org/2000/svg" viewBox="0 0 512 512">
<defs>
  <linearGradient id="bg" x1="0" y1="0" x2="1" y2="1">
    <stop offset="0" stop-color="#061629"/><stop offset="1" stop-color="#0b2a4a"/>
  </linearGradient>
</defs>
<rect width="512" height="512" rx="108" fill="url(#bg)"/>
<!-- subtle handball court / 9 m -->
<path d="M330 92c83 0 122 58 122 132" fill="none" stroke="#60738a" stroke-width="9" stroke-dasharray="18 17" opacity=".72"/>
<path d="M376 126c45 14 70 48 70 98" fill="none" stroke="#9aabba" stroke-width="8" opacity=".65"/>
<path d="M450 137v116" stroke="#f47a20" stroke-width="11"/>
<path d="M450 137h30v116h-30" fill="none" stroke="#e9eef3" stroke-width="8"/>
<path d="M331 140l18-18m-18 0 18 18M382 185l18-18m-18 0 18 18" stroke="#8090a2" stroke-width="8" stroke-linecap="round"/>
<path d="M350 204c20-29 42-42 67-48" fill="none" stroke="#f47a20" stroke-width="9" stroke-linecap="round"/>
<path d="M410 146l12 9-14 6" fill="#f47a20"/>
<!-- CH monogram -->
<path d="M254 154c-21-24-51-38-87-38-71 0-117 55-117 140s46 140 117 140c36 0 66-14 87-38l-35-42c-12 14-29 22-49 22-35 0-57-30-57-82s22-82 57-82c20 0 37 8 49 22z" fill="#f4f7fa"/>
<path d="M274 119h63v103h76V119h63v274h-63V281h-76v112h-63z" fill="#f4f7fa"/>
<path d="M348 119h63l-30 64h-63z" fill="#f47a20"/>
<!-- handball inside C -->
<circle cx="171" cy="256" r="57" fill="#10243d" stroke="#f4f7fa" stroke-width="6"/>
<path d="M171 219l29 20-11 34h-36l-11-34z" fill="#1b3554" stroke="#95a4b3" stroke-width="4"/>
<path d="M171 219l-9-25m38 45 25-6m-36 40 20 24m-56-24-20 24m9-58-25-6" fill="none" stroke="#95a4b3" stroke-width="4"/>
<path d="M61 227h45M52 256h54M63 285h43" stroke="#f47a20" stroke-width="10" stroke-linecap="round"/>
</svg>